<svg xmlns="http://www.w3.org/2000/svg" version="1.1" xmlns:xlink="http://www.w3.org/1999/xlink" xmlns:svgjs="http://svgjs.com/svgjs" width="1440" height="250" preserveAspectRatio="none" viewBox="0 0 1440 250"><g mask="url(&quot;#SvgjsMask1050&quot;)" fill="none"><rect width="1440" height="250" x="0" y="0" fill="rgba(39, 48, 54, 1)"></rect><path d="M6 250L256 0L395.5 0L145.5 250z" fill="url(#SvgjsLinearGradient1051)"></path><path d="M264.6 250L514.6 0L856.6 0L606.6 250z" fill="url(#SvgjsLinearGradient1051)"></path><path d="M507.20000000000005 250L757.2 0L926.7 0L676.7 250z" fill="url(#SvgjsLinearGradient1051)"></path><path d="M741.8000000000001 250L991.8000000000001 0L1231.8000000000002 0L981.8000000000001 250z" fill="url(#SvgjsLinearGradient1051)"></path><path d="M1439 250L1189 0L916 0L1166 250z" fill="url(#SvgjsLinearGradient1052)"></path><path d="M1163.4 250L913.4000000000001 0L671.9000000000001 0L921.9000000000001 250z" fill="url(#SvgjsLinearGradient1052)"></path><path d="M927.8 250L677.8 0L592.3 0L842.3 250z" fill="url(#SvgjsLinearGradient1052)"></path><path d="M687.1999999999999 250L437.19999999999993 0L144.69999999999993 0L394.69999999999993 250z" fill="url(#SvgjsLinearGradient1052)"></path><path d="M1273.6946918270341 250L1440 83.69469182703403L1440 250z" fill="url(#SvgjsLinearGradient1051)"></path><path d="M0 250L166.30530817296597 250L 0 83.69469182703403z" fill="url(#SvgjsLinearGradient1052)"></path></g><defs><mask id="SvgjsMask1050"><rect width="1440" height="250" fill="#ffffff"></rect></mask><linearGradient x1="0%" y1="100%" x2="100%" y2="0%" id="SvgjsLinearGradient1051"><stop stop-color="rgba(180, 158, 60, 1)" offset="0"></stop><stop stop-opacity="0" stop-color="rgba(180, 158, 60, 1)" offset="0.66"></stop></linearGradient><linearGradient x1="100%" y1="100%" x2="0%" y2="0%" id="SvgjsLinearGradient1052"><stop stop-color="rgba(180, 158, 60, 1)" offset="0"></stop><stop stop-opacity="0" stop-color="rgba(180, 158, 60, 1)" offset="0.66"></stop></linearGradient></defs></svg>