<svg xmlns="http://www.w3.org/2000/svg" version="1.1" xmlns:xlink="http://www.w3.org/1999/xlink" xmlns:svgjs="http://svgjs.com/svgjs" width="1440" height="300" preserveAspectRatio="none" viewBox="0 0 1440 300"><g mask="url(&quot;#SvgjsMask1019&quot;)" fill="none"><rect width="1440" height="300" x="0" y="0" fill="rgba(39, 48, 54, 1)"></rect><path d="M 0,56 C 72,74 216,144 360,146 C 504,148 576,70.2 720,66 C 864,61.8 936,131.6 1080,125 C 1224,118.4 1368,51.4 1440,33L1440 300L0 300z" fill="rgba(129, 120, 77, 1)"></path><path d="M 0,239 C 96,234.4 288,208 480,216 C 672,224 768,290.2 960,279 C 1152,267.8 1344,183.8 1440,160L1440 300L0 300z" fill="rgba(180, 158, 60, 1)"></path></g><defs><mask id="SvgjsMask1019"><rect width="1440" height="300" fill="#ffffff"></rect></mask></defs></svg>