<svg xmlns="http://www.w3.org/2000/svg" version="1.1" xmlns:xlink="http://www.w3.org/1999/xlink" xmlns:svgjs="http://svgjs.com/svgjs" width="1440" height="200" preserveAspectRatio="none" viewBox="0 0 1440 200"><g mask="url(&quot;#SvgjsMask1024&quot;)" fill="none"><rect width="1440" height="200" x="0" y="0" fill="rgba(180, 158, 60, 1)"></rect><path d="M 0,58 C 72,55.2 216,38 360,44 C 504,50 576,93 720,88 C 864,83 936,18.2 1080,19 C 1224,19.8 1368,77.4 1440,92L1440 200L0 200z" fill="rgba(129, 120, 77, 1)"></path><path d="M 0,136 C 96,140.8 288,163.4 480,160 C 672,156.6 768,115.8 960,119 C 1152,122.2 1344,164.6 1440,176L1440 200L0 200z" fill="rgba(39, 48, 54, 1)"></path></g><defs><mask id="SvgjsMask1024"><rect width="1440" height="200" fill="#ffffff"></rect></mask></defs></svg>